<svg width="214" height="64" viewBox="0 0 214 64" fill="none" xmlns="http://www.w3.org/2000/svg">
<rect width="214" height="64" fill="url(#paint0_linear_1_2046)"/>
<path opacity="0.87" d="M40.528 34.992C40.528 35.5467 40.3947 36.064 40.128 36.544C39.8613 37.0133 39.456 37.392 38.912 37.68C38.368 37.968 37.7013 38.112 36.912 38.112C36.144 38.112 35.456 37.9787 34.848 37.712C34.24 37.4347 33.7547 37.0507 33.392 36.56C33.0293 36.0693 32.8213 35.504 32.768 34.864H34.72C34.7733 35.3547 34.9813 35.776 35.344 36.128C35.7173 36.48 36.2133 36.656 36.832 36.656C37.3867 36.656 37.8133 36.5067 38.112 36.208C38.4213 35.9093 38.576 35.5253 38.576 35.056C38.576 34.6507 38.464 34.32 38.24 34.064C38.016 33.7973 37.7387 33.5893 37.408 33.44C37.0773 33.2907 36.624 33.12 36.048 32.928C35.344 32.704 34.768 32.48 34.32 32.256C33.8827 32.032 33.5093 31.7067 33.2 31.28C32.8907 30.8533 32.736 30.2933 32.736 29.6C32.736 28.992 32.8853 28.4587 33.184 28C33.4827 27.5413 33.9093 27.1893 34.464 26.944C35.0187 26.688 35.6587 26.56 36.384 26.56C37.536 26.56 38.448 26.8373 39.12 27.392C39.8027 27.9467 40.192 28.672 40.288 29.568H38.32C38.2453 29.1413 38.0427 28.7787 37.712 28.48C37.392 28.1707 36.9493 28.016 36.384 28.016C35.872 28.016 35.4613 28.1493 35.152 28.416C34.8427 28.672 34.688 29.0453 34.688 29.536C34.688 29.92 34.7947 30.24 35.008 30.496C35.2213 30.7413 35.488 30.9387 35.808 31.088C36.1387 31.2267 36.5867 31.392 37.152 31.584C37.8667 31.808 38.448 32.0373 38.896 32.272C39.3547 32.496 39.7387 32.8267 40.048 33.264C40.368 33.7013 40.528 34.2773 40.528 34.992ZM46.786 36.416V38H45.666C44.7273 38 44.0127 37.776 43.522 37.328C43.042 36.8693 42.802 36.112 42.802 35.056V30.736H41.538V29.184H42.802V26.992H44.642V29.184H46.77V30.736H44.642V35.088C44.642 35.5893 44.7327 35.936 44.914 36.128C45.106 36.32 45.4367 36.416 45.906 36.416H46.786ZM52.0306 29.072C52.8306 29.072 53.5133 29.2693 54.0786 29.664C54.644 30.0587 55.044 30.5813 55.2786 31.232V29.184H57.1026V38H55.2786V35.952C55.044 36.6027 54.644 37.1253 54.0786 37.52C53.5133 37.9147 52.8306 38.112 52.0306 38.112C51.2626 38.112 50.5746 37.9307 49.9666 37.568C49.3693 37.2053 48.9 36.6827 48.5586 36C48.2173 35.3173 48.0466 34.512 48.0466 33.584C48.0466 32.6667 48.2173 31.8667 48.5586 31.184C48.9 30.5013 49.3693 29.9787 49.9666 29.616C50.5746 29.2533 51.2626 29.072 52.0306 29.072ZM52.5906 30.672C51.78 30.672 51.1293 30.9333 50.6386 31.456C50.1586 31.968 49.9186 32.6773 49.9186 33.584C49.9186 34.4907 50.1586 35.2053 50.6386 35.728C51.1293 36.24 51.78 36.496 52.5906 36.496C53.1026 36.496 53.5613 36.3787 53.9666 36.144C54.372 35.8987 54.692 35.5573 54.9266 35.12C55.1613 34.6827 55.2786 34.1707 55.2786 33.584C55.2786 33.008 55.1613 32.5013 54.9266 32.064C54.692 31.616 54.372 31.2747 53.9666 31.04C53.5613 30.7947 53.1026 30.672 52.5906 30.672ZM61.1155 30.912C61.4142 30.336 61.8408 29.8827 62.3955 29.552C62.9502 29.2107 63.5902 29.04 64.3155 29.04V31.024H63.7715C62.9715 31.024 62.3262 31.2213 61.8355 31.616C61.3555 32 61.1155 32.64 61.1155 33.536V38H59.2915V29.184H61.1155V30.912ZM70.1141 36.416V38H68.9941C68.0555 38 67.3408 37.776 66.8501 37.328C66.3701 36.8693 66.1301 36.112 66.1301 35.056V30.736H64.8661V29.184H66.1301V26.992H67.9701V29.184H70.0981V30.736H67.9701V35.088C67.9701 35.5893 68.0608 35.936 68.2421 36.128C68.4341 36.32 68.7648 36.416 69.2341 36.416H70.1141ZM79.1088 29.072C79.9088 29.072 80.5914 29.2693 81.1568 29.664C81.7221 30.0587 82.1221 30.5813 82.3568 31.232V29.184H84.1808V38H82.3568V35.952C82.1221 36.6027 81.7221 37.1253 81.1568 37.52C80.5914 37.9147 79.9088 38.112 79.1088 38.112C78.3408 38.112 77.6528 37.9307 77.0448 37.568C76.4474 37.2053 75.9781 36.6827 75.6368 36C75.2954 35.3173 75.1248 34.512 75.1248 33.584C75.1248 32.6667 75.2954 31.8667 75.6368 31.184C75.9781 30.5013 76.4474 29.9787 77.0448 29.616C77.6528 29.2533 78.3408 29.072 79.1088 29.072ZM79.6688 30.672C78.8581 30.672 78.2074 30.9333 77.7168 31.456C77.2368 31.968 76.9968 32.6773 76.9968 33.584C76.9968 34.4907 77.2368 35.2053 77.7168 35.728C78.2074 36.24 78.8581 36.496 79.6688 36.496C80.1808 36.496 80.6394 36.3787 81.0448 36.144C81.4501 35.8987 81.7701 35.5573 82.0048 35.12C82.2394 34.6827 82.3568 34.1707 82.3568 33.584C82.3568 33.008 82.2394 32.5013 82.0048 32.064C81.7701 31.616 81.4501 31.2747 81.0448 31.04C80.6394 30.7947 80.1808 30.672 79.6688 30.672ZM91.9436 33.616V38H90.1196V26.704H93.9596C95.261 26.704 96.237 27.0133 96.8876 27.632C97.549 28.2507 97.8796 29.0987 97.8796 30.176C97.8796 31.2427 97.5436 32.0853 96.8716 32.704C96.1996 33.312 95.229 33.616 93.9596 33.616H91.9436ZM93.7676 32.128C95.2716 32.128 96.0236 31.4773 96.0236 30.176C96.0236 29.536 95.8423 29.0507 95.4796 28.72C95.1276 28.3787 94.557 28.208 93.7676 28.208H91.9436V32.128H93.7676ZM101.303 30.912C101.602 30.336 102.028 29.8827 102.583 29.552C103.138 29.2107 103.778 29.04 104.503 29.04V31.024H103.959C103.159 31.024 102.514 31.2213 102.023 31.616C101.543 32 101.303 32.64 101.303 33.536V38H99.479V29.184H101.303V30.912ZM109.902 29.072C110.755 29.072 111.523 29.2533 112.206 29.616C112.888 29.9787 113.422 30.5013 113.806 31.184C114.19 31.8667 114.382 32.6667 114.382 33.584C114.382 34.512 114.19 35.3173 113.806 36C113.422 36.6827 112.888 37.2053 112.206 37.568C111.523 37.9307 110.755 38.112 109.902 38.112C109.048 38.112 108.28 37.9307 107.598 37.568C106.926 37.2053 106.392 36.6827 105.998 36C105.614 35.3067 105.422 34.5013 105.422 33.584C105.422 32.6667 105.614 31.8667 105.998 31.184C106.392 30.5013 106.926 29.9787 107.598 29.616C108.28 29.2533 109.048 29.072 109.902 29.072ZM109.902 30.656C109.432 30.656 109 30.7627 108.606 30.976C108.211 31.1893 107.891 31.52 107.646 31.968C107.411 32.4053 107.294 32.944 107.294 33.584C107.294 34.2347 107.411 34.7787 107.646 35.216C107.891 35.6533 108.211 35.9787 108.606 36.192C109 36.4053 109.432 36.512 109.902 36.512C110.371 36.512 110.803 36.4053 111.198 36.192C111.592 35.9787 111.907 35.6533 112.142 35.216C112.387 34.7787 112.51 34.2347 112.51 33.584C112.51 32.944 112.387 32.4053 112.142 31.968C111.907 31.52 111.592 31.1893 111.198 30.976C110.803 30.7627 110.371 30.656 109.902 30.656ZM117.127 27.664C116.775 27.664 116.487 27.568 116.263 27.376C116.05 27.184 115.943 26.9333 115.943 26.624C115.943 26.3147 116.05 26.0587 116.263 25.856C116.487 25.6533 116.775 25.552 117.127 25.552C117.479 25.552 117.762 25.6533 117.975 25.856C118.189 26.0587 118.295 26.3147 118.295 26.624C118.295 26.9333 118.189 27.184 117.975 27.376C117.762 27.568 117.479 27.664 117.127 27.664ZM114.567 40.592H115.191C115.543 40.592 115.799 40.512 115.959 40.352C116.13 40.2027 116.215 39.9413 116.215 39.568V29.184H118.055V39.584C118.055 41.3227 117.181 42.192 115.431 42.192H114.567V40.592ZM128.421 33.168C128.421 33.4667 128.4 33.728 128.357 33.952H121.573C121.605 34.8587 121.856 35.5307 122.325 35.968C122.794 36.4053 123.376 36.624 124.069 36.624C124.677 36.624 125.189 36.4693 125.605 36.16C126.032 35.8507 126.293 35.44 126.389 34.928H128.341C128.224 35.5467 127.978 36.096 127.605 36.576C127.232 37.056 126.746 37.4347 126.149 37.712C125.552 37.9787 124.885 38.112 124.149 38.112C123.296 38.112 122.538 37.9307 121.877 37.568C121.226 37.2053 120.714 36.6827 120.341 36C119.968 35.3173 119.781 34.512 119.781 33.584C119.781 32.6667 119.968 31.8667 120.341 31.184C120.714 30.5013 121.226 29.9787 121.877 29.616C122.538 29.2533 123.296 29.072 124.149 29.072C125.013 29.072 125.765 29.2533 126.405 29.616C127.056 29.968 127.552 30.4587 127.893 31.088C128.245 31.7067 128.421 32.4 128.421 33.168ZM126.581 33.12C126.602 32.544 126.501 32.064 126.277 31.68C126.064 31.2853 125.765 30.9973 125.381 30.816C125.008 30.624 124.597 30.528 124.149 30.528C123.434 30.528 122.837 30.7467 122.357 31.184C121.877 31.6213 121.616 32.2667 121.573 33.12H126.581ZM134.102 29.072C135.243 29.072 136.187 29.376 136.934 29.984C137.681 30.5813 138.145 31.3973 138.326 32.432H136.39C136.283 31.8773 136.022 31.4453 135.606 31.136C135.201 30.816 134.689 30.656 134.07 30.656C133.366 30.656 132.779 30.9067 132.31 31.408C131.841 31.8987 131.606 32.624 131.606 33.584C131.606 34.544 131.841 35.2747 132.31 35.776C132.779 36.2773 133.366 36.528 134.07 36.528C134.689 36.528 135.201 36.368 135.606 36.048C136.022 35.728 136.283 35.2907 136.39 34.736H138.326C138.145 35.7707 137.681 36.592 136.934 37.2C136.187 37.808 135.243 38.112 134.102 38.112C133.249 38.112 132.491 37.9307 131.83 37.568C131.179 37.2053 130.667 36.6827 130.294 36C129.921 35.3173 129.734 34.512 129.734 33.584C129.734 32.6667 129.921 31.8667 130.294 31.184C130.667 30.5013 131.179 29.9787 131.83 29.616C132.491 29.2533 133.249 29.072 134.102 29.072ZM144.52 36.416V38H143.4C142.462 38 141.747 37.776 141.256 37.328C140.776 36.8693 140.536 36.112 140.536 35.056V30.736H139.272V29.184H140.536V26.992H142.376V29.184H144.504V30.736H142.376V35.088C142.376 35.5893 142.467 35.936 142.648 36.128C142.84 36.32 143.171 36.416 143.64 36.416H144.52Z" fill="white"/>
<path d="M182.707 32.7071C183.098 32.3166 183.098 31.6834 182.707 31.2929L176.343 24.9289C175.953 24.5384 175.319 24.5384 174.929 24.9289C174.538 25.3195 174.538 25.9526 174.929 26.3431L180.586 32L174.929 37.6569C174.538 38.0474 174.538 38.6805 174.929 39.0711C175.319 39.4616 175.953 39.4616 176.343 39.0711L182.707 32.7071ZM162 33L182 33V31L162 31V33Z" fill="white"/>
<path d="M0 11V0H29V11H0Z" fill="#666DFF"/>
<path d="M0 27V19H8V27H0Z" fill="#666DFF"/>
<path d="M0 19V0H19V19H0Z" fill="#FFA155"/>
<path d="M8 11V0H19V11H8Z" fill="#FFD3AF"/>
<defs>
<linearGradient id="paint0_linear_1_2046" x1="107" y1="0" x2="107" y2="64" gradientUnits="userSpaceOnUse">
<stop stop-color="#444CFC"/>
<stop offset="1" stop-color="#444CFC"/>
</linearGradient>
</defs>
</svg>
